<svg width="148" height="147" viewBox="0 0 148 147" fill="none" xmlns="http://www.w3.org/2000/svg">
<ellipse cx="74" cy="73.5" rx="74" ry="73.5" fill="#6F95FF"/>
<g filter="url(#filter0_d_66_46)">
<path d="M38.9795 72.8647V73.9058H35.9897V76.959L37.291 77.2192V78H33.5205V77.2192L34.625 76.959V69.9385L33.5205 69.6782V68.9673L35.9897 68.8975H39.957V71.043H39.1128L38.7827 69.9385H35.9897V72.8647H38.9795ZM42.2993 74.75C42.2993 75.4609 42.4728 76.0301 42.8198 76.4575C43.1668 76.8807 43.6217 77.0923 44.1846 77.0923C44.5654 77.0923 44.9188 77.0394 45.2446 76.9336C45.5705 76.8278 45.8392 76.7135 46.0508 76.5908C46.2624 76.4639 46.3682 76.3919 46.3682 76.375L46.8252 77.0479C46.8252 77.0648 46.6834 77.1706 46.3999 77.3652C46.1206 77.5557 45.7736 77.7313 45.3589 77.8921C44.9484 78.0487 44.5125 78.127 44.0513 78.127C43.0272 78.127 42.2507 77.818 41.7217 77.2002C41.1969 76.5824 40.9346 75.7233 40.9346 74.623C40.9346 73.9375 41.0679 73.3175 41.3345 72.7632C41.6053 72.2088 41.9819 71.7729 42.4644 71.4556C42.951 71.1382 43.5033 70.9795 44.1211 70.9795C45.9408 70.9795 46.8506 71.9972 46.8506 74.0327C46.8506 74.1724 46.8421 74.312 46.8252 74.4517C46.8083 74.5913 46.7956 74.6823 46.7871 74.7246L42.2993 74.75ZM45.4731 73.7725C45.4731 73.2435 45.3589 72.8161 45.1304 72.4902C44.9061 72.1602 44.5464 71.9951 44.0513 71.9951C43.5477 71.9951 43.1478 72.1644 42.8516 72.5029C42.5596 72.8415 42.3924 73.2646 42.3501 73.7725H45.4731ZM50.2148 72.0586C50.4603 71.792 50.7502 71.5465 51.0845 71.3223C51.423 71.0938 51.7891 70.9795 52.1826 70.9795C52.373 70.9795 52.5529 70.9943 52.7222 71.0239C52.8957 71.0535 53.0374 71.0853 53.1475 71.1191C53.2575 71.1488 53.3252 71.1678 53.3506 71.1763L53.2871 73.0615H52.4365L52.2461 72.084C51.8145 72.084 51.4421 72.1877 51.1289 72.395C50.8158 72.6024 50.5597 72.8372 50.3608 73.0996V76.959L51.6621 77.2827V78H47.9551V77.2827L49.0596 76.959V72.1475L47.9551 71.8872V71.1763L50.1006 71.1128L50.2148 72.0586ZM56.2578 72.0586C56.5033 71.792 56.7931 71.5465 57.1274 71.3223C57.466 71.0938 57.832 70.9795 58.2256 70.9795C58.416 70.9795 58.5959 70.9943 58.7651 71.0239C58.9386 71.0535 59.0804 71.0853 59.1904 71.1191C59.3005 71.1488 59.3682 71.1678 59.3936 71.1763L59.3301 73.0615H58.4795L58.2891 72.084C57.8574 72.084 57.485 72.1877 57.1719 72.395C56.8587 72.6024 56.6027 72.8372 56.4038 73.0996V76.959L57.7051 77.2827V78H53.998V77.2827L55.1025 76.959V72.1475L53.998 71.8872V71.1763L56.1436 71.1128L56.2578 72.0586ZM60.3711 71.5C60.4388 71.4746 60.6081 71.4217 60.8789 71.3413C61.154 71.2567 61.4777 71.1763 61.8501 71.1001C62.2225 71.0197 62.5737 70.9795 62.9038 70.9795C63.6909 70.9795 64.2876 71.1361 64.6938 71.4492C65.1043 71.7624 65.3096 72.2786 65.3096 72.998V76.959L66.3506 77.2192V77.9365L64.332 78L64.0591 77.0923C63.7798 77.3716 63.4561 77.6149 63.0879 77.8223C62.724 78.0254 62.3368 78.127 61.9263 78.127C61.3127 78.127 60.8345 77.9577 60.4917 77.6191C60.1489 77.2764 59.9775 76.7961 59.9775 76.1782C59.9775 75.4588 60.2357 74.9447 60.752 74.6357C61.2682 74.3226 62.0067 74.166 62.9673 74.166H64.0083V73.125C64.0083 72.7441 63.9025 72.4543 63.6909 72.2554C63.4793 72.0565 63.1725 71.957 62.7705 71.957C62.5378 71.957 62.3241 71.9718 62.1294 72.0015C61.9347 72.0311 61.7803 72.0607 61.666 72.0903C61.556 72.12 61.4883 72.139 61.4629 72.1475L61.2788 73.125H60.4346L60.3711 71.5ZM63.1006 75.0103C62.4574 75.0103 61.9961 75.097 61.7168 75.2705C61.4417 75.444 61.3042 75.7254 61.3042 76.1147C61.3042 76.411 61.3888 76.6479 61.5581 76.8257C61.7274 77.0034 61.9601 77.0923 62.2563 77.0923C62.5441 77.0923 62.8171 77.014 63.0752 76.8574C63.3333 76.7008 63.5534 76.5316 63.7354 76.3496C63.9173 76.1676 64.0083 76.0682 64.0083 76.0513V75.0103H63.1006ZM69.5244 72.0332C69.7699 71.8005 70.1084 71.5677 70.54 71.335C70.9717 71.098 71.4181 70.9795 71.8794 70.9795C72.7554 70.9795 73.3584 71.3519 73.6885 72.0967C73.9043 71.8809 74.2323 71.6418 74.6724 71.3794C75.1167 71.1128 75.5949 70.9795 76.1069 70.9795C76.8009 70.9795 77.3088 71.1847 77.6304 71.5952C77.9562 72.0015 78.1191 72.577 78.1191 73.3218V76.959L79.0967 77.2827V78H75.9736V77.2827L76.8179 76.959V73.4487C76.8179 72.9705 76.7354 72.6235 76.5703 72.4077C76.4053 72.1919 76.1196 72.084 75.7134 72.084C75.3833 72.084 75.0828 72.1623 74.812 72.3188C74.5454 72.4754 74.3254 72.6447 74.1519 72.8267C73.9784 73.0086 73.8916 73.1081 73.8916 73.125V76.959L74.7422 77.2827V78H71.7461V77.2827L72.5967 76.959V73.4487C72.5967 72.9705 72.5142 72.6235 72.3491 72.4077C72.1841 72.1919 71.8984 72.084 71.4922 72.084C71.1621 72.084 70.8617 72.1623 70.5908 72.3188C70.3242 72.4754 70.1042 72.6447 69.9307 72.8267C69.7572 73.0086 69.6704 73.1081 69.6704 73.125V76.959L70.5146 77.2827V78H67.2646V77.2827L68.3691 76.959V72.1475L67.2646 71.8872V71.1763L69.4102 71.1128L69.5244 72.0332ZM81.3755 74.75C81.3755 75.4609 81.549 76.0301 81.896 76.4575C82.243 76.8807 82.6979 77.0923 83.2607 77.0923C83.6416 77.0923 83.995 77.0394 84.3208 76.9336C84.6466 76.8278 84.9154 76.7135 85.127 76.5908C85.3385 76.4639 85.4443 76.3919 85.4443 76.375L85.9014 77.0479C85.9014 77.0648 85.7596 77.1706 85.4761 77.3652C85.1968 77.5557 84.8498 77.7313 84.4351 77.8921C84.0246 78.0487 83.5887 78.127 83.1274 78.127C82.1034 78.127 81.3268 77.818 80.7979 77.2002C80.2731 76.5824 80.0107 75.7233 80.0107 74.623C80.0107 73.9375 80.144 73.3175 80.4106 72.7632C80.6815 72.2088 81.0581 71.7729 81.5405 71.4556C82.0272 71.1382 82.5794 70.9795 83.1973 70.9795C85.0169 70.9795 85.9268 71.9972 85.9268 74.0327C85.9268 74.1724 85.9183 74.312 85.9014 74.4517C85.8844 74.5913 85.8717 74.6823 85.8633 74.7246L81.3755 74.75ZM84.5493 73.7725C84.5493 73.2435 84.4351 72.8161 84.2065 72.4902C83.9823 72.1602 83.6226 71.9951 83.1274 71.9951C82.6239 71.9951 82.224 72.1644 81.9277 72.5029C81.6357 72.8415 81.4686 73.2646 81.4263 73.7725H84.5493ZM89.291 72.0332C89.5618 71.8005 89.9152 71.5677 90.3511 71.335C90.7912 71.098 91.244 70.9795 91.7095 70.9795C92.4035 70.9795 92.924 71.1868 93.271 71.6016C93.618 72.012 93.7915 72.5854 93.7915 73.3218V76.959L94.7627 77.2827V78H91.646V77.2827L92.4902 76.959V73.4487C92.4902 72.979 92.3993 72.6341 92.2173 72.4141C92.0353 72.194 91.737 72.084 91.3223 72.084C90.9922 72.084 90.6875 72.1623 90.4082 72.3188C90.1331 72.4754 89.9025 72.6447 89.7163 72.8267C89.5301 73.0086 89.437 73.1081 89.437 73.125V76.959L90.2812 77.2827V78H87.0312V77.2827L88.1357 76.959V72.1475L87.0312 71.8872V71.1763L89.1768 71.1128L89.291 72.0332ZM99.9043 72.1475H98.019V76.3242C98.019 76.8532 98.2349 77.1177 98.6665 77.1177C98.9458 77.1177 99.2843 77.0098 99.6821 76.7939L100.031 77.4795C99.443 77.9111 98.8358 78.127 98.2095 78.127C97.7694 78.127 97.4097 77.9831 97.1304 77.6953C96.8553 77.4033 96.7178 76.9209 96.7178 76.248V72.1475H95.4165V71.3032L96.7178 71.1763V69.5386L98.019 69.2783V71.1763H99.9043V72.1475ZM101.263 71.5C101.33 71.4746 101.5 71.4217 101.771 71.3413C102.046 71.2567 102.369 71.1763 102.742 71.1001C103.114 71.0197 103.465 70.9795 103.795 70.9795C104.583 70.9795 105.179 71.1361 105.585 71.4492C105.996 71.7624 106.201 72.2786 106.201 72.998V76.959L107.242 77.2192V77.9365L105.224 78L104.951 77.0923C104.671 77.3716 104.348 77.6149 103.979 77.8223C103.616 78.0254 103.228 78.127 102.818 78.127C102.204 78.127 101.726 77.9577 101.383 77.6191C101.041 77.2764 100.869 76.7961 100.869 76.1782C100.869 75.4588 101.127 74.9447 101.644 74.6357C102.16 74.3226 102.898 74.166 103.859 74.166H104.9V73.125C104.9 72.7441 104.794 72.4543 104.583 72.2554C104.371 72.0565 104.064 71.957 103.662 71.957C103.429 71.957 103.216 71.9718 103.021 72.0015C102.826 72.0311 102.672 72.0607 102.558 72.0903C102.448 72.12 102.38 72.139 102.354 72.1475L102.17 73.125H101.326L101.263 71.5ZM103.992 75.0103C103.349 75.0103 102.888 75.097 102.608 75.2705C102.333 75.444 102.196 75.7254 102.196 76.1147C102.196 76.411 102.28 76.6479 102.45 76.8257C102.619 77.0034 102.852 77.0923 103.148 77.0923C103.436 77.0923 103.709 77.014 103.967 76.8574C104.225 76.7008 104.445 76.5316 104.627 76.3496C104.809 76.1676 104.9 76.0682 104.9 76.0513V75.0103H103.992ZM109.286 77.0352C109.286 77.0436 109.394 77.0669 109.61 77.105C109.826 77.1388 110.082 77.1558 110.378 77.1558C111.355 77.1558 111.846 76.813 111.851 76.1274C111.851 75.8481 111.73 75.6387 111.489 75.499C111.252 75.3551 110.882 75.2049 110.378 75.0483C109.917 74.9002 109.542 74.7585 109.254 74.623C108.971 74.4834 108.728 74.2845 108.524 74.0264C108.321 73.764 108.22 73.4255 108.22 73.0107C108.22 72.359 108.44 71.8576 108.88 71.5063C109.324 71.1551 109.898 70.9795 110.6 70.9795C110.905 70.9795 111.22 71.0091 111.546 71.0684C111.876 71.1234 112.155 71.1826 112.384 71.2461C112.617 71.3096 112.763 71.3519 112.822 71.373L112.784 73.125H111.939L111.73 72.1094C111.705 72.1009 111.647 72.084 111.559 72.0586C111.474 72.0332 111.353 72.0099 111.197 71.9888C111.04 71.9676 110.867 71.957 110.676 71.957C109.906 71.957 109.521 72.2469 109.521 72.8267C109.521 73.106 109.644 73.3218 109.889 73.4741C110.139 73.6222 110.513 73.7788 111.013 73.9438C111.461 74.1004 111.829 74.2464 112.117 74.3818C112.405 74.513 112.648 74.7056 112.847 74.9595C113.046 75.2091 113.146 75.5244 113.146 75.9053C113.146 76.6247 112.875 77.1748 112.333 77.5557C111.791 77.9365 111.11 78.127 110.289 78.127C109.934 78.127 109.604 78.1058 109.299 78.0635C108.994 78.0212 108.751 77.9788 108.569 77.9365C108.387 77.8942 108.275 77.8625 108.232 77.8413V75.918H109.146L109.286 77.0352Z" fill="white"/>
</g>
<defs>
<filter id="filter0_d_66_46" x="29.5205" y="68.8975" width="87.625" height="17.2295" filterUnits="userSpaceOnUse" color-interpolation-filters="sRGB">
<feFlood flood-opacity="0" result="BackgroundImageFix"/>
<feColorMatrix in="SourceAlpha" type="matrix" values="0 0 0 0 0 0 0 0 0 0 0 0 0 0 0 0 0 0 127 0" result="hardAlpha"/>
<feOffset dy="4"/>
<feGaussianBlur stdDeviation="2"/>
<feComposite in2="hardAlpha" operator="out"/>
<feColorMatrix type="matrix" values="0 0 0 0 0 0 0 0 0 0 0 0 0 0 0 0 0 0 0.25 0"/>
<feBlend mode="normal" in2="BackgroundImageFix" result="effect1_dropShadow_66_46"/>
<feBlend mode="normal" in="SourceGraphic" in2="effect1_dropShadow_66_46" result="shape"/>
</filter>
</defs>
</svg>
