<svg width="148" height="147" viewBox="0 0 148 147" fill="none" xmlns="http://www.w3.org/2000/svg">
<ellipse cx="74" cy="73.5" rx="74" ry="73.5" fill="#6F95FF"/>
<g filter="url(#filter0_d_66_55)">
<path d="M64.252 73.3525C64.252 73.3695 64.089 73.4456 63.7632 73.5811C63.4416 73.7122 63.0332 73.8371 62.5381 73.9556C62.043 74.0698 61.5098 74.127 60.9385 74.127C59.6224 74.127 58.6004 73.7419 57.8726 72.9717C57.1447 72.2015 56.7808 71.0928 56.7808 69.6455C56.7808 68.6595 56.9585 67.8005 57.314 67.0684C57.6694 66.332 58.173 65.765 58.8247 65.3672C59.4806 64.9694 60.2508 64.7705 61.1353 64.7705C61.5584 64.7705 61.9858 64.8192 62.4175 64.9165C62.8534 65.0096 63.2363 65.1154 63.5664 65.2339C63.8965 65.3481 64.0615 65.4095 64.0615 65.418L63.998 67.5635H63.1475L62.7603 66.1353C62.7179 66.1183 62.6164 66.0908 62.4556 66.0527C62.2948 66.0104 62.0832 65.9702 61.8208 65.9321C61.5627 65.894 61.2897 65.875 61.002 65.875C60.126 65.875 59.451 66.1945 58.9771 66.8335C58.5073 67.4683 58.2725 68.3844 58.2725 69.582C58.2725 70.7161 58.5306 71.5731 59.0469 72.1528C59.5632 72.7326 60.2593 73.0225 61.1353 73.0225C61.4019 73.0225 61.6685 72.9992 61.9351 72.9526C62.2059 72.9061 62.4323 72.8574 62.6143 72.8066C62.7962 72.7516 62.9105 72.7157 62.957 72.6987V70.5659L61.8525 70.3057V69.5947L65.2295 69.5249V70.3057L64.252 70.5659V73.3525ZM67.6353 70.75C67.6353 71.4609 67.8088 72.0301 68.1558 72.4575C68.5028 72.8807 68.9577 73.0923 69.5205 73.0923C69.9014 73.0923 70.2547 73.0394 70.5806 72.9336C70.9064 72.8278 71.1751 72.7135 71.3867 72.5908C71.5983 72.4639 71.7041 72.3919 71.7041 72.375L72.1611 73.0479C72.1611 73.0648 72.0194 73.1706 71.7358 73.3652C71.4565 73.5557 71.1095 73.7313 70.6948 73.8921C70.2843 74.0487 69.8485 74.127 69.3872 74.127C68.3631 74.127 67.5866 73.818 67.0576 73.2002C66.5329 72.5824 66.2705 71.7233 66.2705 70.623C66.2705 69.9375 66.4038 69.3175 66.6704 68.7632C66.9412 68.2088 67.3179 67.7729 67.8003 67.4556C68.2869 67.1382 68.8392 66.9795 69.457 66.9795C71.2767 66.9795 72.1865 67.9972 72.1865 70.0327C72.1865 70.1724 72.1781 70.312 72.1611 70.4517C72.1442 70.5913 72.1315 70.6823 72.123 70.7246L67.6353 70.75ZM70.8091 69.7725C70.8091 69.2435 70.6948 68.8161 70.4663 68.4902C70.242 68.1602 69.8823 67.9951 69.3872 67.9951C68.8836 67.9951 68.4837 68.1644 68.1875 68.5029C67.8955 68.8415 67.7284 69.2646 67.686 69.7725H70.8091ZM75.5508 68.0586C75.7962 67.792 76.0861 67.5465 76.4204 67.3223C76.759 67.0938 77.125 66.9795 77.5186 66.9795C77.709 66.9795 77.8888 66.9943 78.0581 67.0239C78.2316 67.0535 78.3734 67.0853 78.4834 67.1191C78.5934 67.1488 78.6611 67.1678 78.6865 67.1763L78.623 69.0615H77.7725L77.582 68.084C77.1504 68.084 76.778 68.1877 76.4648 68.395C76.1517 68.6024 75.8957 68.8372 75.6968 69.0996V72.959L76.998 73.2827V74H73.291V73.2827L74.3955 72.959V68.1475L73.291 67.8872V67.1763L75.4365 67.1128L75.5508 68.0586ZM79.6641 67.5C79.7318 67.4746 79.901 67.4217 80.1719 67.3413C80.4469 67.2567 80.7707 67.1763 81.1431 67.1001C81.5155 67.0197 81.8667 66.9795 82.1968 66.9795C82.9839 66.9795 83.5806 67.1361 83.9868 67.4492C84.3973 67.7624 84.6025 68.2786 84.6025 68.998V72.959L85.6436 73.2192V73.9365L83.625 74L83.3521 73.0923C83.0728 73.3716 82.749 73.6149 82.3809 73.8223C82.0169 74.0254 81.6297 74.127 81.2192 74.127C80.6056 74.127 80.1274 73.9577 79.7847 73.6191C79.4419 73.2764 79.2705 72.7961 79.2705 72.1782C79.2705 71.4588 79.5286 70.9447 80.0449 70.6357C80.5612 70.3226 81.2996 70.166 82.2603 70.166H83.3013V69.125C83.3013 68.7441 83.1955 68.4543 82.9839 68.2554C82.7723 68.0565 82.4655 67.957 82.0635 67.957C81.8307 67.957 81.617 67.9718 81.4224 68.0015C81.2277 68.0311 81.0732 68.0607 80.959 68.0903C80.849 68.12 80.7812 68.139 80.7559 68.1475L80.5718 69.125H79.7275L79.6641 67.5ZM82.3936 71.0103C81.7503 71.0103 81.2891 71.097 81.0098 71.2705C80.7347 71.444 80.5972 71.7254 80.5972 72.1147C80.5972 72.411 80.6818 72.6479 80.8511 72.8257C81.0203 73.0034 81.2531 73.0923 81.5493 73.0923C81.8371 73.0923 82.11 73.014 82.3682 72.8574C82.6263 72.7008 82.8464 72.5316 83.0283 72.3496C83.2103 72.1676 83.3013 72.0682 83.3013 72.0513V71.0103H82.3936ZM89.96 74H86.3608V73.2827L87.4653 72.959V65.0308L86.3608 64.7705V64.0532L88.792 63.9897V72.959L89.96 73.2827V74Z" fill="white"/>
</g>
<defs>
<filter id="filter0_d_66_55" x="52.7808" y="63.9897" width="41.1792" height="18.1372" filterUnits="userSpaceOnUse" color-interpolation-filters="sRGB">
<feFlood flood-opacity="0" result="BackgroundImageFix"/>
<feColorMatrix in="SourceAlpha" type="matrix" values="0 0 0 0 0 0 0 0 0 0 0 0 0 0 0 0 0 0 127 0" result="hardAlpha"/>
<feOffset dy="4"/>
<feGaussianBlur stdDeviation="2"/>
<feComposite in2="hardAlpha" operator="out"/>
<feColorMatrix type="matrix" values="0 0 0 0 0 0 0 0 0 0 0 0 0 0 0 0 0 0 0.25 0"/>
<feBlend mode="normal" in2="BackgroundImageFix" result="effect1_dropShadow_66_55"/>
<feBlend mode="normal" in="SourceGraphic" in2="effect1_dropShadow_66_55" result="shape"/>
</filter>
</defs>
</svg>
