<svg width="148" height="147" viewBox="0 0 148 147" fill="none" xmlns="http://www.w3.org/2000/svg">
<ellipse cx="74" cy="73.5" rx="74" ry="73.5" fill="#6F95FF"/>
<g filter="url(#filter0_d_66_52)">
<path d="M42.8525 74.4673H43.7603V77H37.457V76.2192L38.5615 75.959V68.9385L37.457 68.6782V67.9673L41.0308 67.8975V68.6782L39.9263 68.9385V75.959H42.5923L42.8525 74.4673ZM45.2583 67.9673C45.2583 67.6795 45.3408 67.4552 45.5059 67.2944C45.6709 67.1336 45.8698 67.0532 46.1025 67.0532C46.6654 67.0532 46.9468 67.3579 46.9468 67.9673C46.9468 68.2466 46.86 68.4688 46.6865 68.6338C46.513 68.7946 46.3184 68.875 46.1025 68.875C45.8444 68.875 45.6392 68.7946 45.4868 68.6338C45.3345 68.473 45.2583 68.2508 45.2583 67.9673ZM47.791 77H44.4141V76.2827L45.5186 75.959V71.1475L44.4141 70.8872V70.1763L46.8198 70.1128V75.959L47.791 76.2827V77ZM51.0283 71.0332C51.2992 70.8005 51.6525 70.5677 52.0884 70.335C52.5285 70.098 52.9813 69.9795 53.4468 69.9795C54.1408 69.9795 54.6613 70.1868 55.0083 70.6016C55.3553 71.012 55.5288 71.5854 55.5288 72.3218V75.959L56.5 76.2827V77H53.3833V76.2827L54.2275 75.959V72.4487C54.2275 71.979 54.1366 71.6341 53.9546 71.4141C53.7726 71.194 53.4743 71.084 53.0596 71.084C52.7295 71.084 52.4248 71.1623 52.1455 71.3188C51.8704 71.4754 51.6398 71.6447 51.4536 71.8267C51.2674 72.0086 51.1743 72.1081 51.1743 72.125V75.959L52.0186 76.2827V77H48.7686V76.2827L49.873 75.959V71.1475L48.7686 70.8872V70.1763L50.9141 70.1128L51.0283 71.0332ZM62.9111 71.0713C62.9281 71.0967 62.964 71.1623 63.019 71.2681C63.0783 71.3696 63.1333 71.5199 63.1841 71.7188C63.2391 71.9134 63.2666 72.1356 63.2666 72.3853C63.2666 73.2358 63.0106 73.8706 62.4985 74.2896C61.9865 74.7085 61.2882 74.918 60.4038 74.918C60.1626 74.918 59.951 74.9032 59.769 74.8735C59.5871 74.8439 59.4728 74.8206 59.4263 74.8037L59.3628 76.0225H61.3813C62.2319 76.0225 62.8773 76.1833 63.3174 76.5049C63.7575 76.8265 63.9775 77.2941 63.9775 77.9077C63.9775 78.644 63.6919 79.2174 63.1206 79.6279C62.5493 80.0426 61.7093 80.25 60.6006 80.25C59.623 80.25 58.8571 80.104 58.3027 79.812C57.7526 79.5243 57.4775 79.0418 57.4775 78.3647C57.4775 78.0177 57.5791 77.7215 57.7822 77.4761C57.9854 77.2349 58.2118 77.0487 58.4614 76.9175C58.7153 76.7821 58.8423 76.7228 58.8423 76.7397C58.8423 76.7482 58.7703 76.7313 58.6265 76.689C58.4868 76.6466 58.3577 76.5705 58.2393 76.4604C58.1208 76.3504 58.0615 76.196 58.0615 75.9971C58.0615 75.8659 58.1102 75.6924 58.2075 75.4766C58.3091 75.2607 58.4149 75.0618 58.5249 74.8799C58.6349 74.6979 58.7069 74.5815 58.7407 74.5308C58.7407 74.5562 58.6476 74.4906 58.4614 74.334C58.2752 74.1774 58.1081 73.951 57.96 73.6548C57.8118 73.3543 57.7378 72.9735 57.7378 72.5122C57.7378 71.687 57.9959 71.0586 58.5122 70.627C59.0285 70.1953 59.7246 69.9795 60.6006 69.9795C60.8503 69.9795 61.0703 69.9964 61.2607 70.0303C61.4512 70.0641 61.5972 70.1022 61.6987 70.1445C61.8045 70.1826 61.8701 70.2101 61.8955 70.2271L64.1743 70.1763V70.8872L62.9111 71.0713ZM60.5308 70.8872C60.0229 70.8872 59.6463 71.0163 59.4009 71.2744C59.1597 71.5283 59.0391 71.9198 59.0391 72.4487C59.0391 72.9269 59.1597 73.3078 59.4009 73.5913C59.6463 73.8706 60.0018 74.0103 60.4673 74.0103C60.9878 74.0103 61.3665 73.8875 61.6035 73.6421C61.8447 73.3924 61.9653 72.9946 61.9653 72.4487C61.9653 71.9451 61.8447 71.5601 61.6035 71.2935C61.3665 71.0226 61.009 70.8872 60.5308 70.8872ZM59.623 77C59.623 76.9831 59.5448 77.0275 59.3882 77.1333C59.2316 77.2433 59.0898 77.3851 58.9629 77.5586C58.8402 77.7321 58.7788 77.9352 58.7788 78.168C58.7788 78.5911 58.946 78.881 59.2803 79.0376C59.6146 79.1942 60.1182 79.2725 60.791 79.2725C61.4512 79.2725 61.9421 79.1709 62.2637 78.9678C62.5853 78.7646 62.7461 78.4557 62.7461 78.041C62.7461 77.6432 62.6043 77.3703 62.3208 77.2222C62.0373 77.0741 61.6141 77 61.0513 77H59.623ZM72.623 76.9365L70.4775 77L70.3506 76.0923C70.0924 76.325 69.7412 76.5557 69.2969 76.7842C68.8525 77.0127 68.4019 77.127 67.9448 77.127C67.2508 77.127 66.7303 76.9238 66.3833 76.5176C66.0363 76.1113 65.8628 75.54 65.8628 74.8037V71.1475L64.7583 70.8872V70.1763L67.1641 70.1128V74.6704C67.1641 75.1317 67.255 75.4723 67.437 75.6924C67.619 75.9124 67.9173 76.0225 68.332 76.0225C68.6621 76.0225 68.9647 75.9484 69.2397 75.8003C69.519 75.6479 69.7518 75.4808 69.938 75.2988C70.1242 75.1169 70.2173 75.0174 70.2173 75.0005V71.1475L69.1128 70.8872V70.1763L71.5186 70.1128V75.959L72.623 76.2192V76.9365ZM73.9307 70.5C73.9984 70.4746 74.1676 70.4217 74.4385 70.3413C74.7135 70.2567 75.0373 70.1763 75.4097 70.1001C75.7821 70.0197 76.1333 69.9795 76.4634 69.9795C77.2505 69.9795 77.8472 70.1361 78.2534 70.4492C78.6639 70.7624 78.8691 71.2786 78.8691 71.998V75.959L79.9102 76.2192V76.9365L77.8916 77L77.6187 76.0923C77.3394 76.3716 77.0156 76.6149 76.6475 76.8223C76.2835 77.0254 75.8963 77.127 75.4858 77.127C74.8722 77.127 74.394 76.9577 74.0513 76.6191C73.7085 76.2764 73.5371 75.7961 73.5371 75.1782C73.5371 74.4588 73.7952 73.9447 74.3115 73.6357C74.8278 73.3226 75.5662 73.166 76.5269 73.166H77.5679V72.125C77.5679 71.7441 77.4621 71.4543 77.2505 71.2554C77.0389 71.0565 76.7321 70.957 76.3301 70.957C76.0973 70.957 75.8836 70.9718 75.689 71.0015C75.4943 71.0311 75.3398 71.0607 75.2256 71.0903C75.1156 71.12 75.0479 71.139 75.0225 71.1475L74.8384 72.125H73.9941L73.9307 70.5ZM76.6602 74.0103C76.0169 74.0103 75.5557 74.097 75.2764 74.2705C75.0013 74.444 74.8638 74.7254 74.8638 75.1147C74.8638 75.411 74.9484 75.6479 75.1177 75.8257C75.2869 76.0034 75.5197 76.0923 75.8159 76.0923C76.1037 76.0923 76.3766 76.014 76.6348 75.8574C76.8929 75.7008 77.113 75.5316 77.2949 75.3496C77.4769 75.1676 77.5679 75.0682 77.5679 75.0513V74.0103H76.6602ZM86.3213 71.0713C86.3382 71.0967 86.3742 71.1623 86.4292 71.2681C86.4884 71.3696 86.5435 71.5199 86.5942 71.7188C86.6493 71.9134 86.6768 72.1356 86.6768 72.3853C86.6768 73.2358 86.4207 73.8706 85.9087 74.2896C85.3966 74.7085 84.6984 74.918 83.814 74.918C83.5728 74.918 83.3612 74.9032 83.1792 74.8735C82.9972 74.8439 82.883 74.8206 82.8364 74.8037L82.7729 76.0225H84.7915C85.6421 76.0225 86.2874 76.1833 86.7275 76.5049C87.1676 76.8265 87.3877 77.2941 87.3877 77.9077C87.3877 78.644 87.1021 79.2174 86.5308 79.6279C85.9595 80.0426 85.1195 80.25 84.0107 80.25C83.0332 80.25 82.2673 80.104 81.7129 79.812C81.1628 79.5243 80.8877 79.0418 80.8877 78.3647C80.8877 78.0177 80.9893 77.7215 81.1924 77.4761C81.3955 77.2349 81.6219 77.0487 81.8716 76.9175C82.1255 76.7821 82.2524 76.7228 82.2524 76.7397C82.2524 76.7482 82.1805 76.7313 82.0366 76.689C81.897 76.6466 81.7679 76.5705 81.6494 76.4604C81.5309 76.3504 81.4717 76.196 81.4717 75.9971C81.4717 75.8659 81.5203 75.6924 81.6177 75.4766C81.7192 75.2607 81.825 75.0618 81.9351 74.8799C82.0451 74.6979 82.117 74.5815 82.1509 74.5308C82.1509 74.5562 82.0578 74.4906 81.8716 74.334C81.6854 74.1774 81.5182 73.951 81.3701 73.6548C81.222 73.3543 81.1479 72.9735 81.1479 72.5122C81.1479 71.687 81.4061 71.0586 81.9224 70.627C82.4386 70.1953 83.1348 69.9795 84.0107 69.9795C84.2604 69.9795 84.4805 69.9964 84.6709 70.0303C84.8613 70.0641 85.0073 70.1022 85.1089 70.1445C85.2147 70.1826 85.2803 70.2101 85.3057 70.2271L87.5845 70.1763V70.8872L86.3213 71.0713ZM83.9409 70.8872C83.4331 70.8872 83.0565 71.0163 82.811 71.2744C82.5698 71.5283 82.4492 71.9198 82.4492 72.4487C82.4492 72.9269 82.5698 73.3078 82.811 73.5913C83.0565 73.8706 83.4119 74.0103 83.8774 74.0103C84.3979 74.0103 84.7767 73.8875 85.0137 73.6421C85.2549 73.3924 85.3755 72.9946 85.3755 72.4487C85.3755 71.9451 85.2549 71.5601 85.0137 71.2935C84.7767 71.0226 84.4191 70.8872 83.9409 70.8872ZM83.0332 77C83.0332 76.9831 82.9549 77.0275 82.7983 77.1333C82.6418 77.2433 82.5 77.3851 82.373 77.5586C82.2503 77.7321 82.189 77.9352 82.189 78.168C82.189 78.5911 82.3561 78.881 82.6904 79.0376C83.0247 79.1942 83.5283 79.2725 84.2012 79.2725C84.8613 79.2725 85.3522 79.1709 85.6738 78.9678C85.9954 78.7646 86.1562 78.4557 86.1562 78.041C86.1562 77.6432 86.0145 77.3703 85.731 77.2222C85.4474 77.0741 85.0243 77 84.4614 77H83.0332ZM89.7935 73.75C89.7935 74.4609 89.967 75.0301 90.314 75.4575C90.661 75.8807 91.1159 76.0923 91.6787 76.0923C92.0596 76.0923 92.4129 76.0394 92.7388 75.9336C93.0646 75.8278 93.3333 75.7135 93.5449 75.5908C93.7565 75.4639 93.8623 75.3919 93.8623 75.375L94.3193 76.0479C94.3193 76.0648 94.1776 76.1706 93.894 76.3652C93.6147 76.5557 93.2677 76.7313 92.853 76.8921C92.4425 77.0487 92.0067 77.127 91.5454 77.127C90.5213 77.127 89.7448 76.818 89.2158 76.2002C88.6911 75.5824 88.4287 74.7233 88.4287 73.623C88.4287 72.9375 88.562 72.3175 88.8286 71.7632C89.0994 71.2088 89.4761 70.7729 89.9585 70.4556C90.4451 70.1382 90.9974 69.9795 91.6152 69.9795C93.4349 69.9795 94.3447 70.9972 94.3447 73.0327C94.3447 73.1724 94.3363 73.312 94.3193 73.4517C94.3024 73.5913 94.2897 73.6823 94.2812 73.7246L89.7935 73.75ZM92.9673 72.7725C92.9673 72.2435 92.853 71.8161 92.6245 71.4902C92.4002 71.1602 92.0405 70.9951 91.5454 70.9951C91.0418 70.9951 90.6419 71.1644 90.3457 71.5029C90.0537 71.8415 89.8866 72.2646 89.8442 72.7725H92.9673ZM97.709 71.0332C97.9798 70.8005 98.3332 70.5677 98.769 70.335C99.2091 70.098 99.6619 69.9795 100.127 69.9795C100.821 69.9795 101.342 70.1868 101.689 70.6016C102.036 71.012 102.209 71.5854 102.209 72.3218V75.959L103.181 76.2827V77H100.064V76.2827L100.908 75.959V72.4487C100.908 71.979 100.817 71.6341 100.635 71.4141C100.453 71.194 100.155 71.084 99.7402 71.084C99.4102 71.084 99.1055 71.1623 98.8262 71.3188C98.5511 71.4754 98.3205 71.6447 98.1343 71.8267C97.9481 72.0086 97.855 72.1081 97.855 72.125V75.959L98.6992 76.2827V77H95.4492V76.2827L96.5537 75.959V71.1475L95.4492 70.8872V70.1763L97.5947 70.1128L97.709 71.0332ZM105.225 76.0352C105.225 76.0436 105.333 76.0669 105.548 76.105C105.764 76.1388 106.02 76.1558 106.316 76.1558C107.294 76.1558 107.785 75.813 107.789 75.1274C107.789 74.8481 107.668 74.6387 107.427 74.499C107.19 74.3551 106.82 74.2049 106.316 74.0483C105.855 73.9002 105.481 73.7585 105.193 73.623C104.909 73.4834 104.666 73.2845 104.463 73.0264C104.26 72.764 104.158 72.4255 104.158 72.0107C104.158 71.359 104.378 70.8576 104.818 70.5063C105.263 70.1551 105.836 69.9795 106.539 69.9795C106.843 69.9795 107.159 70.0091 107.484 70.0684C107.814 70.1234 108.094 70.1826 108.322 70.2461C108.555 70.3096 108.701 70.3519 108.76 70.373L108.722 72.125H107.878L107.668 71.1094C107.643 71.1009 107.586 71.084 107.497 71.0586C107.412 71.0332 107.292 71.0099 107.135 70.9888C106.979 70.9676 106.805 70.957 106.615 70.957C105.845 70.957 105.459 71.2469 105.459 71.8267C105.459 72.106 105.582 72.3218 105.828 72.4741C106.077 72.6222 106.452 72.7788 106.951 72.9438C107.4 73.1004 107.768 73.2464 108.056 73.3818C108.343 73.513 108.587 73.7056 108.786 73.9595C108.985 74.2091 109.084 74.5244 109.084 74.9053C109.084 75.6247 108.813 76.1748 108.271 76.5557C107.73 76.9365 107.049 77.127 106.228 77.127C105.872 77.127 105.542 77.1058 105.237 77.0635C104.933 77.0212 104.689 76.9788 104.507 76.9365C104.325 76.8942 104.213 76.8625 104.171 76.8413V74.918H105.085L105.225 76.0352Z" fill="white"/>
</g>
<defs>
<filter id="filter0_d_66_52" x="33.457" y="67.0532" width="79.627" height="21.1968" filterUnits="userSpaceOnUse" color-interpolation-filters="sRGB">
<feFlood flood-opacity="0" result="BackgroundImageFix"/>
<feColorMatrix in="SourceAlpha" type="matrix" values="0 0 0 0 0 0 0 0 0 0 0 0 0 0 0 0 0 0 127 0" result="hardAlpha"/>
<feOffset dy="4"/>
<feGaussianBlur stdDeviation="2"/>
<feComposite in2="hardAlpha" operator="out"/>
<feColorMatrix type="matrix" values="0 0 0 0 0 0 0 0 0 0 0 0 0 0 0 0 0 0 0.25 0"/>
<feBlend mode="normal" in2="BackgroundImageFix" result="effect1_dropShadow_66_52"/>
<feBlend mode="normal" in="SourceGraphic" in2="effect1_dropShadow_66_52" result="shape"/>
</filter>
</defs>
</svg>
