<svg width="48" height="48" viewBox="0 0 48 48" fill="none" xmlns="http://www.w3.org/2000/svg">
<path d="M28 6V14C28 14.5304 28.2107 15.0391 28.5858 15.4142C28.9609 15.7893 29.4696 16 30 16H38" stroke="black" stroke-width="2" stroke-linecap="round" stroke-linejoin="round"/>
<path d="M34 42H14C12.9391 42 11.9217 41.5786 11.1716 40.8284C10.4214 40.0783 10 39.0609 10 38V10C10 8.93913 10.4214 7.92172 11.1716 7.17157C11.9217 6.42143 12.9391 6 14 6H28L38 16V38C38 39.0609 37.5786 40.0783 36.8284 40.8284C36.0783 41.5786 35.0609 42 34 42Z" stroke="black" stroke-width="2" stroke-linecap="round" stroke-linejoin="round"/>
<path d="M22 25C22 24.2044 21.6839 23.4413 21.1213 22.8787C20.5587 22.3161 19.7956 22 19 22C18.2044 22 17.4413 22.3161 16.8787 22.8787C16.3161 23.4413 16 24.2044 16 25V31C16 31.7956 16.3161 32.5587 16.8787 33.1213C17.4413 33.6839 18.2044 34 19 34C19.7956 34 20.5587 33.6839 21.1213 33.1213C21.6839 32.5587 22 31.7956 22 31M26 22L29 34L32 22" stroke="black" stroke-width="2" stroke-linecap="round" stroke-linejoin="round"/>
</svg>
