<svg width="148" height="147" viewBox="0 0 148 147" fill="none" xmlns="http://www.w3.org/2000/svg">
<ellipse cx="74" cy="73.5" rx="74" ry="73.5" fill="#6F95FF"/>
<g filter="url(#filter0_d_66_47)">
<path d="M48.209 76.6987C48.2428 76.7157 48.3211 76.7516 48.4438 76.8066C48.5666 76.8574 48.7337 76.9061 48.9453 76.9526C49.1569 76.9992 49.3875 77.0225 49.6372 77.0225C50.1577 77.0225 50.619 76.8997 51.021 76.6543C51.4272 76.4089 51.6304 76.0682 51.6304 75.6323C51.6304 75.353 51.5436 75.1203 51.3701 74.9341C51.1966 74.7437 50.9808 74.5892 50.7227 74.4707C50.4688 74.3522 50.1175 74.2104 49.6689 74.0454C49.0807 73.8381 48.6047 73.6434 48.2407 73.4614C47.881 73.2795 47.5721 73.0171 47.314 72.6743C47.0601 72.3315 46.9331 71.8914 46.9331 71.354C46.9331 70.495 47.2251 69.8496 47.8091 69.418C48.3973 68.9863 49.1336 68.7705 50.0181 68.7705C50.382 68.7705 50.7671 68.8107 51.1733 68.8911C51.5796 68.9673 51.9266 69.0477 52.2144 69.1323C52.5021 69.2127 52.6841 69.2656 52.7603 69.291L52.6968 71.5H51.8525L51.4082 70.1099C51.3743 70.1014 51.2918 70.0781 51.1606 70.04C51.0295 69.9977 50.8602 69.9596 50.6528 69.9258C50.4455 69.8919 50.2381 69.875 50.0308 69.875C49.4764 69.875 49.049 69.9998 48.7485 70.2495C48.4481 70.495 48.2979 70.7912 48.2979 71.1382C48.2979 71.4175 48.3846 71.6523 48.5581 71.8428C48.7316 72.029 48.9474 72.1834 49.2056 72.3062C49.4679 72.4289 49.834 72.5728 50.3037 72.7378C50.8665 72.9367 51.3278 73.125 51.6875 73.3027C52.0472 73.4805 52.3519 73.7323 52.6016 74.0581C52.8555 74.3797 52.9824 74.7881 52.9824 75.2832C52.9824 75.9053 52.8301 76.4321 52.5254 76.8638C52.2207 77.2912 51.8102 77.6086 51.2939 77.8159C50.7819 78.0233 50.2127 78.127 49.5864 78.127C49.1802 78.127 48.7803 78.0889 48.3867 78.0127C47.9932 77.9365 47.6652 77.8582 47.4028 77.7778C47.1447 77.6932 46.9797 77.6382 46.9077 77.6128V75.334H47.9487L48.209 76.6987ZM57.5908 70.9795C58.5514 70.9795 59.3005 71.2905 59.8379 71.9126C60.3753 72.5304 60.644 73.3683 60.644 74.4263C60.644 75.1541 60.5086 75.7995 60.2378 76.3623C59.9712 76.9251 59.5903 77.361 59.0952 77.6699C58.6043 77.9746 58.0373 78.127 57.394 78.127C56.408 78.127 55.6421 77.8307 55.0962 77.2383C54.5503 76.6458 54.2773 75.7741 54.2773 74.623C54.2773 73.8952 54.417 73.2562 54.6963 72.7061C54.9798 72.1517 55.3713 71.7264 55.8706 71.4302C56.37 71.1297 56.9434 70.9795 57.5908 70.9795ZM57.5273 72.0205C56.8841 72.0205 56.408 72.2321 56.0991 72.6553C55.7944 73.0742 55.6421 73.7069 55.6421 74.5532C55.6421 76.2417 56.2493 77.0881 57.4639 77.0923C58.0986 77.0923 58.5599 76.8765 58.8477 76.4448C59.1354 76.009 59.2793 75.3573 59.2793 74.4897C59.2793 72.8436 58.6953 72.0205 57.5273 72.0205ZM62.9229 70.3955C62.9229 69.6084 63.1302 68.9906 63.5449 68.542C63.9639 68.0892 64.5584 67.8628 65.3286 67.8628C65.6925 67.8628 66.0205 67.8966 66.3125 67.9644C66.6045 68.0321 66.8394 68.1061 67.0171 68.1865C67.1948 68.2627 67.2837 68.305 67.2837 68.3135V69.9385H66.3696L66.1729 68.8975C66.139 68.889 66.048 68.8763 65.8999 68.8594C65.756 68.8424 65.5889 68.834 65.3984 68.834C64.9668 68.834 64.6621 68.9461 64.4844 69.1704C64.3109 69.3905 64.2241 69.7121 64.2241 70.1353V71.1763H65.9443L65.8999 72.1475H64.2241V76.959L65.5254 77.2827V78H61.8184V77.2827L62.9229 76.959V72.1475H61.7549V71.3032L62.9229 71.1763V70.3955ZM71.3145 72.1475H69.4292V76.3242C69.4292 76.8532 69.645 77.1177 70.0767 77.1177C70.356 77.1177 70.6945 77.0098 71.0923 76.7939L71.4414 77.4795C70.8532 77.9111 70.2459 78.127 69.6196 78.127C69.1795 78.127 68.8198 77.9831 68.5405 77.6953C68.2655 77.4033 68.1279 76.9209 68.1279 76.248V72.1475H66.8267V71.3032L68.1279 71.1763V69.5386L69.4292 69.2783V71.1763H71.3145V72.1475ZM76.3418 77.0352C76.3418 77.0436 76.4497 77.0669 76.6655 77.105C76.8813 77.1388 77.1374 77.1558 77.4336 77.1558C78.4111 77.1558 78.902 76.813 78.9062 76.1274C78.9062 75.8481 78.7856 75.6387 78.5444 75.499C78.3075 75.3551 77.9372 75.2049 77.4336 75.0483C76.9723 74.9002 76.5978 74.7585 76.3101 74.623C76.0265 74.4834 75.7832 74.2845 75.5801 74.0264C75.377 73.764 75.2754 73.4255 75.2754 73.0107C75.2754 72.359 75.4954 71.8576 75.9355 71.5063C76.3799 71.1551 76.9533 70.9795 77.6558 70.9795C77.9604 70.9795 78.2757 71.0091 78.6016 71.0684C78.9316 71.1234 79.2109 71.1826 79.4395 71.2461C79.6722 71.3096 79.8182 71.3519 79.8774 71.373L79.8394 73.125H78.9951L78.7856 72.1094C78.7603 72.1009 78.7031 72.084 78.6143 72.0586C78.5296 72.0332 78.409 72.0099 78.2524 71.9888C78.0959 71.9676 77.9224 71.957 77.7319 71.957C76.9618 71.957 76.5767 72.2469 76.5767 72.8267C76.5767 73.106 76.6994 73.3218 76.9448 73.4741C77.1945 73.6222 77.569 73.7788 78.0684 73.9438C78.5169 74.1004 78.8851 74.2464 79.1729 74.3818C79.4606 74.513 79.7039 74.7056 79.9028 74.9595C80.1017 75.2091 80.2012 75.5244 80.2012 75.9053C80.2012 76.6247 79.9303 77.1748 79.3887 77.5557C78.847 77.9365 78.1657 78.127 77.3447 78.127C76.9893 78.127 76.6592 78.1058 76.3545 78.0635C76.0498 78.0212 75.8065 77.9788 75.6245 77.9365C75.4425 77.8942 75.3304 77.8625 75.2881 77.8413V75.918H76.2021L76.3418 77.0352ZM85.5967 72.0713L85.0127 71.8872V71.1763L87.8691 71.1128V71.8872L86.9487 72.0459H86.936L85.5967 74.0327L87.2725 76.959H87.2852L88.2627 77.2827V78H86.5044L84.6445 74.6865H83.5146V76.959L84.3589 77.2827V78H81.1089V77.2827L82.2134 76.959V69.0308L81.1089 68.7705V68.0532L83.5146 67.9897V73.709H84.6191L85.5967 72.0713ZM89.6909 68.9673C89.6909 68.6795 89.7734 68.4552 89.9385 68.2944C90.1035 68.1336 90.3024 68.0532 90.5352 68.0532C91.098 68.0532 91.3794 68.3579 91.3794 68.9673C91.3794 69.2466 91.2926 69.4688 91.1191 69.6338C90.9456 69.7946 90.751 69.875 90.5352 69.875C90.277 69.875 90.0718 69.7946 89.9194 69.6338C89.7671 69.473 89.6909 69.2508 89.6909 68.9673ZM92.2236 78H88.8467V77.2827L89.9512 76.959V72.1475L88.8467 71.8872V71.1763L91.2524 71.1128V76.959L92.2236 77.2827V78ZM96.6035 78H93.0044V77.2827L94.1089 76.959V69.0308L93.0044 68.7705V68.0532L95.4355 67.9897V76.959L96.6035 77.2827V78ZM100.59 78H96.9907V77.2827L98.0952 76.959V69.0308L96.9907 68.7705V68.0532L99.4219 67.9897V76.959L100.59 77.2827V78Z" fill="white"/>
</g>
<defs>
<filter id="filter0_d_66_47" x="42.9077" y="67.8628" width="61.6821" height="18.2642" filterUnits="userSpaceOnUse" color-interpolation-filters="sRGB">
<feFlood flood-opacity="0" result="BackgroundImageFix"/>
<feColorMatrix in="SourceAlpha" type="matrix" values="0 0 0 0 0 0 0 0 0 0 0 0 0 0 0 0 0 0 127 0" result="hardAlpha"/>
<feOffset dy="4"/>
<feGaussianBlur stdDeviation="2"/>
<feComposite in2="hardAlpha" operator="out"/>
<feColorMatrix type="matrix" values="0 0 0 0 0 0 0 0 0 0 0 0 0 0 0 0 0 0 0.25 0"/>
<feBlend mode="normal" in2="BackgroundImageFix" result="effect1_dropShadow_66_47"/>
<feBlend mode="normal" in="SourceGraphic" in2="effect1_dropShadow_66_47" result="shape"/>
</filter>
</defs>
</svg>
